<?xml version="1.0" standalone="no"?>
<!DOCTYPE svg PUBLIC "-//W3C//DTD SVG 20010904//EN"
 "http://www.w3.org/TR/2001/REC-SVG-20010904/DTD/svg10.dtd">
<svg version="1.0" xmlns="http://www.w3.org/2000/svg"
 width="512.000000pt" height="512.000000pt" viewBox="0 0 512.000000 512.000000"
 preserveAspectRatio="xMidYMid meet">
<metadata>
Created by potrace 1.16, written by Peter Selinger 2001-2019
</metadata>
<g transform="translate(0.000000,512.000000) scale(0.100000,-0.100000)"
fill="#000000" stroke="none">
<path d="M0 2560 l0 -2560 2560 0 2560 0 0 2560 0 2560 -2560 0 -2560 0 0
-2560z m3529 1906 c17 -21 -5 -89 -41 -126 -90 -94 -275 -171 -556 -229 -63
-13 -340 -14 -397 -2 -22 5 -65 12 -97 16 l-56 6 -31 -45 c-59 -86 -100 -79
-66 10 25 67 96 167 128 182 29 14 47 12 170 -22 68 -19 302 -22 375 -5 140
32 219 51 237 59 11 4 36 13 55 20 105 36 169 70 209 112 39 41 52 46 70 24z
m-436 -573 c13 -21 29 -52 35 -68 7 -17 24 -44 38 -60 88 -101 91 -118 34
-182 -46 -53 -51 -91 -24 -190 8 -32 19 -80 24 -108 6 -27 14 -68 19 -90 19
-84 33 -152 41 -190 8 -39 24 -116 40 -185 17 -74 32 -147 40 -185 4 -22 14
-74 22 -115 15 -71 20 -103 49 -277 9 -57 9 -95 -1 -180 -20 -174 -69 -252
-194 -312 -114 -54 -209 -72 -403 -73 -120 -1 -157 2 -198 16 -116 42 -155 39
-155 -12 0 -38 -26 -72 -55 -72 -57 0 -333 65 -389 91 -22 11 -48 19 -57 19
-18 0 -59 -48 -59 -69 0 -6 -12 -36 -26 -68 -39 -85 -128 -168 -239 -222 -123
-60 -143 -67 -310 -113 -56 -15 -108 -32 -195 -64 -44 -16 -97 -27 -130 -28
-48 -1 -55 2 -58 19 -2 16 8 27 40 44 95 51 201 104 358 179 172 83 411 233
466 293 71 78 78 106 43 184 -57 129 45 309 226 395 60 29 66 30 98 17 18 -8
62 -48 98 -88 169 -194 223 -231 384 -269 63 -15 277 -14 375 1 187 29 302 86
286 141 -4 13 -12 50 -17 83 -21 119 -25 140 -59 310 -8 40 -25 120 -40 185
-4 19 -13 60 -20 90 -7 30 -16 71 -20 90 -42 185 -109 514 -130 640 -7 41 -22
91 -33 110 -11 19 -28 50 -38 68 -11 18 -19 50 -19 72 0 68 78 210 116 210 7
0 24 -17 37 -37z m716 -126 c6 -8 15 -61 21 -118 6 -57 15 -124 21 -149 6 -25
14 -63 19 -85 5 -22 13 -60 19 -85 12 -55 26 -123 41 -210 6 -36 15 -85 20
-110 5 -25 14 -74 20 -110 13 -75 23 -120 45 -210 27 -108 43 -181 55 -260 13
-90 25 -156 39 -228 13 -66 14 -218 2 -275 -5 -23 -15 -69 -21 -102 -21 -111
-32 -145 -46 -145 -8 0 -14 10 -14 23 -2 84 -12 232 -20 285 -5 34 -14 95 -20
135 -16 101 -29 183 -41 242 -17 89 -61 309 -69 345 -4 19 -13 60 -20 90 -7
30 -16 71 -20 90 -4 19 -13 60 -20 90 -7 30 -16 73 -21 95 -5 22 -14 64 -19
93 -6 28 -15 78 -21 110 -6 31 -15 77 -21 102 -27 125 -19 271 19 363 17 39
33 46 52 24z m-1173 -498 c12 -19 -18 -89 -50 -116 -27 -23 -69 -45 -221 -112
-98 -44 -227 -82 -360 -106 -109 -20 -331 -19 -420 1 -39 9 -90 19 -114 23
-48 9 -50 8 -104 -63 -15 -20 -32 -36 -37 -36 -13 0 -13 53 1 87 32 80 74 155
96 172 23 19 26 19 66 2 23 -9 67 -23 97 -29 316 -68 675 -6 970 166 40 23 66
27 76 11z"/>
<path d="M2052 2138 c-134 -100 -134 -99 -117 -118 24 -26 147 -85 240 -115
92 -29 105 -30 105 -11 0 19 -104 223 -126 247 -23 25 -64 24 -102 -3z"/>
</g>
</svg>
